# xmcd
#
# Track frame offsets:
# 150
# 13781
# 51735
# 67878
# 98255
# 116254
# 128914
# 144506
# 154722
# 167427
# 178089
# 188582
# 219955
# 247345
#
# Disc length: 3737 seconds
#
#
# Revision: 0
# Processed by: cddbd v1.5.1PL2 Copyright (c) Steve Scherf et al.
# Submitted via: FreeRIP 2.94 
#
DISCID=ba0e970e
DTITLE=Kati Szvorák - Stafirung
DYEAR=2002
DGENRE=Folk
TTITLE0=Bécsi kapitányné
TTITLE1=Télizöld
TTITLE2=Kárpáti menyasszony
TTITLE3=Ansinglied und Ehrentanz-Walzer
TTITLE4=Derülõbe, borulóba
TTITLE5=Zakukala kukulienka
TTITLE6=Talán értem jönnek
TTITLE7=Hopp ide tisztán
TTITLE8=Csöcsös korsó
TTITLE9=Ruszin menyecske
TTITLE10=Brautlied
TTITLE11=Osztrák és ruszin lakodalmi mars
TTITLE12=Szép aranypáva
TTITLE13=Kánai mennyegzõ
EXTD=
EXTT0=
EXTT1=
EXTT2=
EXTT3=
EXTT4=
EXTT5=
EXTT6=
EXTT7=
EXTT8=
EXTT9=
EXTT10=
EXTT11=
EXTT12=
EXTT13=
PLAYORDER=
